PathFileType	4	(X/Y/Z)	4_coords_data.trc
DataRate	CameraRate	NumFrames	NumMarkers	Units	OrigDataRate	OrigDataStartFrame	OrigNumFrames
30.0	30.0	6	21	m	30.0	29	57
Frame#	Time	THUMB_TIP	THUMB_IP	THUMB_MCP	THUMB_CMC	INDEX_TIP	INDEX_DIP	INDEX_PIP	INDEX_MCP	MIDDLE_TIP	MIDDLE_DIP	MIDDLE_PIP	MIDDLE_MCP	RING_TIP	RING_DIP	RING_PIP	RING_MCP	PINKY_TIP	PINKY_DIP	PINKY_PIP	PINKY_MCP	WRIST
X1	Y1	Z1	X2	Y2	Z2	X3	Y3	Z3	X4	Y4	Z4	X5	Y5	Z5	X6	Y6	Z6	X7	Y7	Z7	X8	Y8	Z8	X9	Y9	Z9	X10	Y10	Z10	X11	Y11	Z11	X12	Y12	Z12	X13	Y13	Z13	X14	Y14	Z14	X15	Y15	Z15	X16	Y16	Z16	X17	Y17	Z17	X18	Y18	Z18	X19	Y19	Z19	X20	Y20	Z20	X21	Y21	Z21
27	0.9333333333333294	0.5349897030867263	-0.006959014665823715	-0.11149476931689445	0.5138879413789647	-0.009379960596842651	-0.12026144905485267	0.4830400354232298	-0.013316292458081413	-0.11894539828670841	0.4777619771821119	-0.024386004515745463	-0.07605608054716198	0.5017100479437133	-0.008780493772006182	-0.10728426300021945	0.5163383715938991	-0.003170484308978483	-0.11636941247670911	0.5271591608551981	0.018480817920525583	-0.12316216335755484	0.4930520547223992	0.03581406445607582	-0.10445655003470883	0.5042938374481906	-0.014816223425520025	-0.0967186123171131	0.5211916986485727	-0.009196597499393944	-0.10001741381205516	0.5392995666860003	0.013284746230856626	-0.10403037396902653	0.5070373906659732	0.037026344962414304	-0.08424056828219645	0.5067700561876538	-0.0077742373303588685	-0.08456986845543785	0.524476636397992	-0.010106308088293936	-0.08211253998027505	0.5447677540869301	0.004159175827261108	-0.08433661070502921	0.5203110689714763	0.030432625581214512	-0.06572754771975167	0.5110150678519872	-0.01600008221844329	-0.0651808364754452	0.5275927042191321	-0.01699958907059862	-0.06932606970545939	0.5443170573010226	-0.004759661058373443	-0.06596568353006246	0.523808683738351	0.017474038040726447	-0.04632000489112001	0.4622830810018609	-0.023011742144276925	-0.051989820119430985
28	0.9666666666666625	0.5355537285172564	-0.0065159391607276795	-0.1152913597620704	0.5137357419277541	-0.008912485002806836	-0.12209077364909823	0.483011677289493	-0.012879289201545241	-0.11907144979220158	0.47754318350856595	-0.023983442799441868	-0.07621490596699003	0.50667944066365	-0.009437622633260978	-0.10936349282335717	0.5205332091254915	-0.0016962098781257984	-0.11808952445063872	0.5287145532739885	0.021397203696851275	-0.12372598525320927	0.49374429370233197	0.035752614323388276	-0.10411376392989975	0.5090580007099772	-0.014983890501129027	-0.09869251650895766	0.5254947907632102	-0.008127785942794175	-0.10198276923954205	0.541203603646888	0.01628434300352477	-0.10456940954965352	0.5074733922525524	0.03693985993565041	-0.08379032437825812	0.511460113467526	-0.011412264677095774	-0.08415902879390487	0.5293206753391332	-0.008982802913070964	-0.08384590714400719	0.5475261922045639	0.007997447390467594	-0.0844864024926956	0.5201660633549053	0.030711039248126015	-0.06524486075992897	0.5150766794831472	-0.015939642249727104	-0.06807257339445319	0.5319830274773998	-0.015220198900685489	-0.07065284445865352	0.5468374449199486	-0.0013047463461358655	-0.06550323460502544	0.5234260453183771	0.018006007976034688	-0.04601260641596197	0.4622830810018609	-0.023011742144276925	-0.051989820119430985
29	0.9999999999999956	0.535889839574946	-0.006594957610240426	-0.11923776635218711	0.5135175235201378	-0.008821508689410562	-0.12398349544639645	0.48299024508550636	-0.012598835788866114	-0.1192256523049926	0.4772985873333042	-0.023628149886836813	-0.07637884072513174	0.5129106426820079	-0.009847329025143514	-0.11227352696232286	0.5256310112992368	0.0002360726396304358	-0.12030578897925506	0.5306207526781931	0.024545704524174927	-0.12432500676497782	0.4948297185445878	0.035330625403349525	-0.10392100099951518	0.5151996831821594	-0.015173204439597132	-0.10155705706978096	0.5309516634209306	-0.006689465060986333	-0.10436797946521695	0.5435407286367849	0.019587573680210135	-0.10503297719801749	0.5082462570198142	0.03650933964019221	-0.08348994976280216	0.5182406503577643	-0.013002694832314976	-0.08566336099460445	0.5353840285271543	-0.007427618994804042	-0.08581539502793334	0.5506344431501546	0.01221500757654892	-0.08448420976473653	0.5203611684645875	0.030570601738850622	-0.06495674611066522	0.5206584649151162	-0.01598447016525517	-0.0713384760982218	0.5375442688041919	-0.01323908782946126	-0.07191510669920154	0.5498118629536225	0.0022112771644040574	-0.06473148822790192	0.5234025199648782	0.018030126964948434	-0.04593803072560387	0.4622830810018609	-0.023011742144276925	-0.051989820119430985
30	1.0333333333333288	0.5359598848225507	-0.007296214119284161	-0.1232613331813493	0.513213286320836	-0.009222447672469714	-0.12588466710984061	0.4829555326436743	-0.012611633415872792	-0.11941923886347337	0.47704772567559184	-0.023384404903804556	-0.07653643098786099	0.5205114158002072	-0.009938444903471289	-0.1159614176268304	0.5314509752594604	0.0027186565090958625	-0.12289855123297205	0.5327440148687749	0.02774540178308027	-0.12489852687278344	0.4963068686265636	0.034490653379260716	-0.10391110090798389	0.5227912202537705	-0.015147280633678206	-0.10505651660390641	0.5375398730131031	-0.004822498987807511	-0.10702530449236053	0.546184150631285	0.022959284765297183	-0.10533459282104402	0.5094109805008974	0.035657976862236596	-0.0833658628033871	0.526486383121396	-0.013481554561015852	-0.0879367334586995	0.542567040934561	-0.005333609511048443	-0.08778364603724914	0.5538705230612235	0.016563134871326102	-0.08418588892132624	0.5209617266251698	0.029932688624389026	-0.06487301799092465	0.5278716689277473	-0.01593803619786438	-0.07458033570604372	0.54414874478179	-0.010950294369094782	-0.07279729529952474	0.5530416900196631	0.0056550486947247736	-0.06352420920432156	0.5237771027398034	0.017486971915821936	-0.04607505520679099	0.4622830810018608	-0.023011742144276925	-0.051989820119430985
31	1.0666666666666622	0.5357849225051906	-0.008420361130579757	-0.12736865052358518	0.5128640187487138	-0.009988979504593765	-0.1277829057384378	0.48296431323427225	-0.012861377335124158	-0.11962343634068638	0.4768004164215568	-0.02326282336396479	-0.0766850351525738	0.5290375675643412	-0.00925624045823803	-0.12039793575843173	0.5376533312033508	0.005744413918603364	-0.12575974377283047	0.5348973147480176	0.030730234774876908	-0.12540908377206247	0.4981226805673109	0.03322334396123494	-0.1040772582182076	0.5317686258889935	-0.014694017608097076	-0.10901444920968112	0.5450241839399091	-0.002378234803327328	-0.10979654553657883	0.5489420831678695	0.026171162593861652	-0.10543861897720111	0.5109284455708234	0.03436574048538421	-0.08343952420445612	0.5358759452662626	-0.013069581614653436	-0.09053041413818218	0.5505243780347717	-0.0026075512275000046	-0.08954586469567116	0.5569708458334671	0.020694615154550844	-0.08357660395219488	0.5219635203576263	0.02876248796780334	-0.06502620165742728	0.5365803279542258	-0.015649286856400102	-0.07739679436440378	0.5514406411276312	-0.008390562478662211	-0.07298295105087926	0.5562648229749737	0.008747400647658887	-0.061855080257927464	0.5245471254240363	0.016348436283367573	-0.04645717876675194	0.4622830810018609	-0.023011742144276925	-0.051989820119431
32	1.0999999999999952	0.535257594736454	-0.009868589305379594	-0.13146102202954724	0.5123821380394203	-0.011038247564010617	-0.12963198390524275	0.482924217943831	-0.013297196013171808	-0.11983667403031277	0.47656541619371817	-0.023255737180284508	-0.07682175687212585	0.5386490410684046	-0.007741267776413041	-0.1254947226308127	0.5438650861374985	0.009303577049528	-0.1286988041991835	0.5369402590517096	0.033295107680566094	-0.12578967016791498	0.5001664515813198	0.03157843828804929	-0.10437994750909713	0.5420211206797304	-0.01358843232480944	-0.11324162079269107	0.5530896128164481	0.0007256830998075836	-0.11247052972792665	0.5516050422333305	0.02893930242418674	-0.105315301932618	0.512685031451418	0.032683375028423556	-0.08369673116417878	0.5461110397313866	-0.011959528611248715	-0.09308506636008373	0.558736520774029	0.0007158981570958289	-0.09086452933444945	0.5597319079407552	0.024222714691011116	-0.08270249773507644	0.5232931892499675	0.027085339148831822	-0.0654182275628323	0.5464581408525389	-0.015096040250888954	-0.07936008560739752	0.5588834475486991	-0.005706991277191653	-0.07225674041827207	0.559220775492632	0.011187180952691556	-0.05979539323888229	0.5256417890382854	0.014649119912386155	-0.04709302738294212	0.4622830810018609	-0.023011742144276925	-0.05198982011943097
